<svg xmlns="http://www.w3.org/2000/svg" width="760" height="108" viewBox="0 0 760 108" role="img" aria-labelledby="title description">
  <title id="title">Four pixel musicians and a quiet thought</title>
  <desc id="description">Four small pixel characters inspired by a rock band, surrounding a reflective sentence.</desc>
  <defs>
    <linearGradient id="red" x1="0" y1="0" x2="1" y2="0">
      <stop offset="0" stop-color="#b51743" />
      <stop offset="0.5" stop-color="#e63956" />
      <stop offset="1" stop-color="#ff936f" />
    </linearGradient>
    <pattern id="dots" width="18" height="18" patternUnits="userSpaceOnUse">
      <circle cx="2" cy="2" r="0.8" fill="#d7264f" fill-opacity="0.12" />
    </pattern>

    <!-- Red-haired guitarist: side ponytail, white shirt, orange skirt. -->
    <g id="red-girl" shape-rendering="crispEdges">
      <ellipse cx="19" cy="96" rx="17" ry="2" fill="#9b2947" opacity="0.22" />
      <rect x="9" y="10" width="21" height="6" fill="#b92d55" />
      <rect x="5" y="16" width="27" height="15" fill="#e2536d" />
      <rect x="0" y="18" width="9" height="12" fill="#bd3158" />
      <rect x="27" y="15" width="9" height="15" fill="#bd3158" />
      <rect x="11" y="18" width="17" height="14" fill="#ffd0ba" />
      <rect x="14" y="23" width="3" height="3" fill="#4a2036" />
      <rect x="23" y="23" width="3" height="3" fill="#4a2036" />
      <rect x="17" y="29" width="6" height="2" fill="#df8b86" />
      <rect x="10" y="33" width="18" height="14" fill="#f3e9df" />
      <rect x="5" y="35" width="7" height="4" fill="#ffd0ba" />
      <rect x="26" y="35" width="8" height="4" fill="#ffd0ba" />
      <rect x="7" y="47" width="24" height="17" fill="#e99a55" />
      <rect x="11" y="47" width="16" height="4" fill="#f2b76b" />
      <rect x="12" y="64" width="6" height="27" fill="#ffd0ba" />
      <rect x="23" y="64" width="6" height="27" fill="#ffd0ba" />
      <rect x="9" y="89" width="10" height="5" fill="#4d3342" />
      <rect x="22" y="89" width="10" height="5" fill="#4d3342" />
    </g>

    <!-- Blue-haired bassist: short blue hair, black top, long gray skirt. -->
    <g id="blue-girl" shape-rendering="crispEdges">
      <ellipse cx="19" cy="96" rx="17" ry="2" fill="#30314b" opacity="0.22" />
      <rect x="7" y="10" width="24" height="6" fill="#354a82" />
      <rect x="4" y="16" width="30" height="15" fill="#4766a4" />
      <rect x="9" y="21" width="20" height="13" fill="#ffd0ba" />
      <rect x="12" y="25" width="3" height="3" fill="#262b48" />
      <rect x="23" y="25" width="3" height="3" fill="#262b48" />
      <rect x="16" y="31" width="7" height="2" fill="#df8b86" />
      <rect x="9" y="35" width="20" height="17" fill="#20243a" />
      <rect x="4" y="37" width="7" height="4" fill="#ffd0ba" />
      <rect x="27" y="37" width="7" height="4" fill="#ffd0ba" />
      <rect x="6" y="51" width="26" height="31" fill="#596178" />
      <rect x="10" y="51" width="18" height="4" fill="#737a8e" />
      <rect x="10" y="81" width="7" height="11" fill="#ffd0ba" />
      <rect x="21" y="81" width="7" height="11" fill="#ffd0ba" />
      <rect x="8" y="90" width="10" height="5" fill="#22243a" />
      <rect x="20" y="90" width="10" height="5" fill="#22243a" />
    </g>

    <!-- Pink-haired guitarist: long hair, pink sweater, dark pleated skirt. -->
    <g id="pink-girl" shape-rendering="crispEdges">
      <ellipse cx="19" cy="96" rx="17" ry="2" fill="#9b2947" opacity="0.22" />
      <rect x="8" y="9" width="22" height="6" fill="#b93d72" />
      <rect x="4" y="15" width="29" height="20" fill="#ed6d9d" />
      <rect x="0" y="24" width="8" height="31" fill="#d9568b" />
      <rect x="29" y="23" width="8" height="34" fill="#d9568b" />
      <rect x="9" y="21" width="19" height="15" fill="#ffd0ba" />
      <rect x="12" y="26" width="3" height="3" fill="#4a2036" />
      <rect x="22" y="26" width="3" height="3" fill="#4a2036" />
      <rect x="16" y="32" width="7" height="2" fill="#df8b86" />
      <rect x="7" y="36" width="25" height="19" fill="#ef87a9" />
      <rect x="2" y="39" width="8" height="4" fill="#ffd0ba" />
      <rect x="30" y="39" width="8" height="4" fill="#ffd0ba" />
      <rect x="8" y="55" width="24" height="15" fill="#3e3c53" />
      <rect x="11" y="55" width="3" height="15" fill="#6b6077" />
      <rect x="20" y="55" width="3" height="15" fill="#6b6077" />
      <rect x="27" y="55" width="3" height="15" fill="#6b6077" />
      <rect x="12" y="70" width="6" height="21" fill="#ffd0ba" />
      <rect x="23" y="70" width="6" height="21" fill="#ffd0ba" />
      <rect x="9" y="89" width="10" height="5" fill="#25263d" />
      <rect x="22" y="89" width="10" height="5" fill="#25263d" />
    </g>

    <!-- Blonde drummer: long golden hair, lavender shirt, deep purple pants. -->
    <g id="blonde-girl" shape-rendering="crispEdges">
      <ellipse cx="19" cy="96" rx="17" ry="2" fill="#5d345d" opacity="0.22" />
      <rect x="8" y="9" width="23" height="6" fill="#d9a83e" />
      <rect x="4" y="15" width="29" height="17" fill="#f0c34e" />
      <rect x="0" y="22" width="8" height="40" fill="#e3ad3d" />
      <rect x="29" y="21" width="9" height="42" fill="#e3ad3d" />
      <rect x="9" y="21" width="19" height="15" fill="#ffd0ba" />
      <rect x="12" y="26" width="3" height="3" fill="#4a2036" />
      <rect x="22" y="26" width="3" height="3" fill="#4a2036" />
      <rect x="16" y="32" width="7" height="2" fill="#df8b86" />
      <rect x="7" y="36" width="25" height="19" fill="#d9c3e7" />
      <rect x="2" y="39" width="8" height="4" fill="#ffd0ba" />
      <rect x="30" y="39" width="8" height="4" fill="#ffd0ba" />
      <rect x="8" y="55" width="24" height="18" fill="#413060" />
      <rect x="12" y="70" width="7" height="21" fill="#413060" />
      <rect x="23" y="70" width="7" height="21" fill="#413060" />
      <rect x="9" y="89" width="11" height="5" fill="#25263d" />
      <rect x="22" y="89" width="11" height="5" fill="#25263d" />
    </g>
  </defs>

  <rect width="760" height="108" fill="url(#dots)" opacity="0.45" />
  <path d="M82 84H678" stroke="#d7264f" stroke-opacity="0.16" />
  <path d="M82 84H178M582 84H678" stroke="url(#red)" stroke-linecap="round" />
  <use href="#red-girl" x="18" y="0" />
  <use href="#blue-girl" x="72" y="0" />
  <use href="#pink-girl" x="650" y="0" />
  <use href="#blonde-girl" x="704" y="0" />

  <text x="380" y="49" fill="url(#red)" font-family="'SFMono-Regular', Consolas, 'Liberation Mono', monospace" font-size="20" text-anchor="middle">不必耀眼，先勇敢地发出自己的声音。</text>
</svg>
